REM DIRINDEX 1
REM DIRNAME cjc069
TITLE ""
FILE "Disk2Track05.mp3" MP3
  TRACK 01 AUDIO
    TITLE "1:cjc069_0460"
    INDEX 01 00:00:00
  TRACK 02 AUDIO
    TITLE "1:cjc069_0461"
    INDEX 01 00:06:55
  TRACK 03 AUDIO
    TITLE "1:cjc069_0462"
    INDEX 01 00:14:27
  TRACK 04 AUDIO
    TITLE "1:cjc069_0463"
    INDEX 01 00:18:41
  TRACK 05 AUDIO
    TITLE "0:"
    INDEX 01 00:28:57
